<?xml version="1.0" encoding="UTF-8"?>
<svg width="25px" height="23px" viewBox="0 0 25 23" version="1.1" xmlns="http://www.w3.org/2000/svg" xmlns:xlink="http://www.w3.org/1999/xlink">
    <!-- Generator: Sketch 42 (36781) - http://www.bohemiancoding.com/sketch -->
    <title>stack-of-3</title>
    <desc>Created with Sketch.</desc>
    <defs></defs>
    <g id="Page-1" stroke="none" stroke-width="1" fill="none" fill-rule="evenodd">
        <g id="Shaded" transform="translate(-450.000000, -301.000000)" fill="#938CAA">
            <g id="stack-of-3" transform="translate(450.000000, 301.000000)">
                <path d="M24.7236,6.05389985 L22.7236,5.05389985 C22.5826,4.98389985 22.4166,4.98389985 22.2766,5.05389985 L12.4996,9.94289985 L2.7236,5.05389985 C2.5826,4.98389985 2.4166,4.98389985 2.2766,5.05389985 L0.2766,6.05389985 C0.1076,6.13889985 -0.0004,6.31189985 -0.0004,6.50089985 C-0.0004,6.69089985 0.1076,6.86389985 0.2766,6.94889985 L12.2766,12.9488998 C12.3466,12.9838998 12.4236,13.0008998 12.4996,13.0008998 C12.5766,13.0008998 12.6536,12.9838998 12.7236,12.9488998 L24.7236,6.94889985 C24.8926,6.86389985 24.9996,6.69089985 24.9996,6.50089985 C24.9996,6.31189985 24.8926,6.13889985 24.7236,6.05389985" id="Fill-115" opacity="0.239999995"></path>
                <path d="M25,16.5041 C25,16.6931 24.893,16.8661 24.724,16.9511 L12.724,22.9511 C12.653,22.9861 12.577,23.0041 12.5,23.0041 C12.423,23.0041 12.347,22.9861 12.276,22.9511 L0.276,16.9511 C0.107,16.8661 0,16.6931 0,16.5041 C0,16.3151 0.107,16.1421 0.276,16.0571 L3.036,14.6771 C3.283,14.5531 3.583,14.6541 3.707,14.9001 C3.831,15.1481 3.73,15.4471 3.483,15.5711 L1.618,16.5041 L12.5,21.9451 L23.382,16.5041 L21.517,15.5711 C21.27,15.4471 21.169,15.1481 21.293,14.9001 C21.417,14.6541 21.716,14.5531 21.964,14.6771 L24.724,16.0571 C24.893,16.1421 25,16.3151 25,16.5041 L25,16.5041 Z M25,11.5041 C25,11.6931 24.893,11.8661 24.724,11.9511 L12.724,17.9511 C12.653,17.9861 12.577,18.0041 12.5,18.0041 C12.423,18.0041 12.347,17.9861 12.276,17.9511 L0.276,11.9511 C0.107,11.8661 0,11.6931 0,11.5041 C0,11.3151 0.107,11.1421 0.276,11.0571 L3.036,9.6771 C3.283,9.5531 3.583,9.6531 3.707,9.9001 C3.831,10.1481 3.73,10.4471 3.483,10.5711 L1.618,11.5041 L12.5,16.9451 L23.382,11.5041 L21.517,10.5711 C21.27,10.4471 21.169,10.1481 21.293,9.9001 C21.417,9.6531 21.716,9.5531 21.964,9.6771 L24.724,11.0571 C24.893,11.1421 25,11.3151 25,11.5041 L25,11.5041 Z M12.5,1.0631 L23.382,6.5041 L12.5,11.9451 L1.618,6.5041 L12.5,1.0631 Z M0.276,6.9511 L12.276,12.9511 C12.347,12.9861 12.423,13.0041 12.5,13.0041 C12.577,13.0041 12.653,12.9861 12.724,12.9511 L24.724,6.9511 C24.893,6.8661 25,6.6931 25,6.5041 C25,6.3151 24.893,6.1421 24.724,6.0571 L12.724,0.0571 C12.583,-0.0139 12.417,-0.0139 12.276,0.0571 L0.276,6.0571 C0.107,6.1421 0,6.3151 0,6.5041 C0,6.6931 0.107,6.8661 0.276,6.9511 L0.276,6.9511 Z" id="Fill-99"></path>
            </g>
        </g>
    </g>
</svg>